<svg width="40" height="39" viewBox="0 0 40 39" fill="none" xmlns="http://www.w3.org/2000/svg">
<g filter="url(#filter0_d_24_29)">
<path d="M19.85 17.65L20.3 16.8L21.2 16L22.45 15.9L23.6 16.25L23.95 16.95L24.1 17.9L23.4 19.6L22.45 20.8L20 23.1L17.3 20.8L16.05 19.6L15.3 17.9L15.65 16.95L16.3 16.25L17.3 15.9L18.4 16L19.35 16.8L19.85 17.65Z" fill="#C46161"/>
<path d="M19.4191 17.9035L19.873 18.6752L20.2919 17.884L20.6997 17.1138L21.407 16.4851L22.3953 16.406L23.2489 16.6658L23.4682 17.1044L23.5843 17.8394L22.9644 19.3447L22.0809 20.4607L19.9839 22.4294L17.6356 20.429L16.4676 19.3078L15.8391 17.8832L16.0846 17.2169L16.5822 16.681L17.3628 16.4078L18.1982 16.4837L18.9625 17.1273L19.4191 17.9035Z" stroke="white"/>
</g>
<defs>
<filter id="filter0_d_24_29" x="0.300049" y="0.900024" width="38.8" height="37.2" filterUnits="userSpaceOnUse" color-interpolation-filters="sRGB">
<feFlood flood-opacity="0" result="BackgroundImageFix"/>
<feColorMatrix in="SourceAlpha" type="matrix" values="0 0 0 0 0 0 0 0 0 0 0 0 0 0 0 0 0 0 127 0" result="hardAlpha"/>
<feOffset/>
<feGaussianBlur stdDeviation="7.5"/>
<feComposite in2="hardAlpha" operator="out"/>
<feColorMatrix type="matrix" values="0 0 0 0 0 0 0 0 0 0 0 0 0 0 0 0 0 0 0.35 0"/>
<feBlend mode="normal" in2="BackgroundImageFix" result="effect1_dropShadow_24_29"/>
<feBlend mode="normal" in="SourceGraphic" in2="effect1_dropShadow_24_29" result="shape"/>
</filter>
</defs>
</svg>
