<svg width="101" height="64" viewBox="0 0 101 64" fill="none" xmlns="http://www.w3.org/2000/svg">
<path d="M86.95 52.5L87.5 51.9V50.65H87.15L85.85 51.1L85.65 50.55L85.15 50.4L83.8 51.1L82.55 50.2H80.9L79.4 50.9L79.8 52.85L80.8 52.95L81.05 53.5741L83.15 53.5H86.35V52.95L86.95 52.5Z" fill="#EE7D79" stroke="black"/>
<path d="M67 56.5999V55.8999L63.1 57.7499V59.3999L63.8 60.2499H67L70.65 59.3999L72.8 58.9499L76.05 58.6499L77.5 58.4499L77.95 57.8999L78.1 57.2499H78.5V56.5999V55.3999L78.1 55.0499H76.75L75.4 54.7999L73.05 55.0499L71.05 55.5999L69.35 56.3499L68.2 56.5999H67Z" fill="#EE7D79" stroke="black"/>
<path d="M83.55 45.85L82.55 50.2H80.9L79.35 50.9L78.7 49.1L77.2 46.6H75.55L74.9 48.35L72.9 52.5L70.15 54.95L67 55.9L63.15 57.8V59.45L61.7 59.85L52.9 60.75H46.75L44.1 60.1L39.2 60.75L37.1 55.9L38.35 54.95L41.3 52.5L40.85 50.2L39.2 44L38.35 39.05L39.2 34L41.95 28.75L44.1 25.4L48.2 21.2L52.9 18.8L57.9 16.65L62.1 16.1H68.95L70.2 15.3L73.35 12.6L74.75 10.25L76.4 9.09995L75.55 7.94995L74.75 7.79995L73.9 6.64995L73.35 5.79995L74.75 4.59995H76.4L78.3 5.79995L79.2 7.29995L81.1 6.64995L87 3.49995L90.1 3.04995L92.7 2.59995L94.05 2.14995L96 0.949951L98 1.59995L98.75 2.59995L99.6 4.59995V7.94995L98.75 11.35L97.55 13.45L93.4 17.4L89.65 20.15L88.15 22.2L87.35 24.4V28.25L86.35 28.75V35.55L85.5 36.65L84.1 40.4L83.55 43.35V45.85Z" fill="#2E2E2E" stroke="black"/>
<path d="M35.65 56.7L38.3 55.1L37.6 56.7L38.3 58.95L40.35 60.55L37.15 61.5L34.25 62.6L28.1 63.05H23.9L15.6 62.6H10.2L7.69998 61.9L5.04998 61.2L2.34998 59.6L0.599976 57.85V56V54.15L1.19998 52.6L1.99998 51.4L4.04998 49.7L5.89998 48.3L6.84998 47.55L7.69998 47.35L8.24998 47.65V48.65L7.69998 49.4L6.59998 50.75L5.54998 52.05L4.64998 53L4.04998 54.5L4.34998 56L5.89998 56.7L8.89998 57.3L11.15 57.85H16.35H23.05H29.6L32.2 57.3L33.95 56.7H35.65Z" fill="#6E5950" stroke="black"/>
<path d="M79 7.8L76.35 9.1L76.05 8.8L75.35 7.9L74.8 7.8L74.15 7.2L73.25 5.7L74.45 4.5H76.35L78.2 5.7L79.3 7.2L79 7.8Z" fill="#B68576" stroke="black"/>
<path d="M79.65 10.65L80.5 9.84998H81.4L82.5 10.25L83.1 11.6V13.2V15.3L83.4 16.6L83.1 17.6H81.75L81.4 16.6L80.5 15.3L79.35 13.85V12.1L79.65 10.65Z" fill="#B68576" stroke="black"/>
<path d="M87.75 7.69995V9.69995L88.7 10.2L89.4 9.69995L90.05 8.79995V6.94995H88.95L87.75 7.69995Z" fill="black" stroke="black"/>
<path d="M88.5499 7.84993V8.74993L89.0499 8.94993L89.5999 8.74993V8.19993L89.2499 7.54993L88.5499 7.84993Z" fill="#B4B4B4" stroke="#CCCCCC"/>
<path d="M97.35 3.14998L97.6 1.59998L98.25 1.74998L98.65 2.34998L98.9 3.14998L99.4 4.14998V4.84998L98.35 4.64998L97.6 4.14998L97.35 3.14998Z" fill="#CC968B" stroke="#8B5950"/>
</svg>
