<svg width="97" height="77" viewBox="0 0 97 77" fill="none" xmlns="http://www.w3.org/2000/svg">
<path d="M89.8618 39.3385L90.147 38.5762L89.6788 37.4172L89.3542 37.5483L88.3175 38.4526L87.926 38.0175L87.4062 38.0658L86.4168 39.2205L84.9206 38.8543L83.3908 39.4724L82.2622 40.6833L83.3636 42.3415L84.3282 42.0596L84.7938 42.5447L86.7131 41.6892L89.6801 40.4905L89.4741 39.9805L89.8618 39.3385Z" fill="#EE7D79" stroke="black"/>
<path d="M62.9502 56.65V55.95L59.0502 57.8V59.45L59.7502 60.3H62.9502L66.6002 59.45L68.7502 59L72.0002 58.7L73.4502 58.5L73.9002 57.95L74.0502 57.3H74.4502V56.65V55.45L74.0502 55.1H72.7002L71.3502 54.85L69.0002 55.1L67.0002 55.65L65.3002 56.4L64.1502 56.65H62.9502Z" fill="#EE7D79" stroke="black"/>
<path d="M79.5 41L82.5 40.5L83 41.5L83.5 42L75.5 46.65H73.1502H71.5002L70.8502 48.4L68.8502 52.55L66.1002 55L62.9502 55.95L59.1002 57.85V59.5L57.6502 59.9L48.8502 60.8H42.7002L40.0502 60.15L35.1502 60.8L33.0502 55.95L34.3002 55L37.2502 52.55L36.8002 50.25L35.1502 44.05L34.3002 39.1L35.1502 34.05L37.9002 28.8L40.0502 25.45L44.1502 21.25L48.8502 18.85L53.8502 16.7L58.0502 16.15H64.9002L66.1502 15.35L69.3002 12.65L70.7002 10.3L72.3502 9.15L71.5002 8L70.7002 7.85L69.8502 6.7L69.3002 5.85L70.7002 4.65H72.3502L74.2502 5.85L75.1502 7.35L77.0502 6.7L82.9502 3.55L86.0502 3.1L88.6502 2.65L90.0002 2.2L91.9502 1L93.9502 1.65L94.7002 2.65L95.5502 4.65V8L94.7002 11.4L93.5002 13.5L89.3502 17.45L85.6002 20.2L84.1002 22.25L83.3002 24.45V28.3L82.3002 28.8V35.6L81.4502 36.7L80.5 38L80 39L79.5 41Z" fill="#2E2E2E" stroke="black"/>
<path d="M31.6002 56.75L34.2502 55.15L33.5502 56.75L34.2502 59L36.3002 60.6L33.1002 61.55L30.2002 62.65L24.0502 63.1H19.8502L11.5502 62.65H9.20022H7.10022V63.35L9.80022 64.95V66.8V68.65L9.20022 70.2L8.40022 71.4L6.35022 73.1L4.50022 74.5L2.85 75.9176L4.65 71.4L5.2 68.65V67.65L4.65 66.9L3.55 65.55L2.5 64.25L1.6 63.3L1 61.8L1.3 60.3L2.85 59.6L5.2 59H7.10022L12.3002 57.9H19.0002H25.5502L28.1502 57.35L29.9002 56.75H31.6002Z" fill="#6E5950" stroke="black"/>
</svg>
